/* XPM */
static char *_d79c40461914215d9ddbce180604f8f8Q2tM0pGBVu3MhZd[] = {
/* columns rows colors chars-per-pixel */
"60 60 233 2 ",
"   c #1D389B",
".  c #223CAA",
"X  c #1D428E",
"o  c #31529E",
"O  c #244595",
"+  c #1742AB",
"@  c #274CAE",
"#  c #2856BB",
"$  c #365EBD",
"%  c #2E4EAF",
"&  c #455997",
"*  c #5C709E",
"=  c #4857A4",
"-  c #475CBA",
";  c #5364AB",
":  c #5B71AC",
">  c #4965BA",
",  c #4868BF",
"<  c #5769BB",
"1  c #5975BA",
"2  c #6676AD",
"3  c #707BAE",
"4  c #6576B6",
"5  c #233FC1",
"6  c #1E4CC5",
"7  c #224AC4",
"8  c #2E5BC2",
"9  c #2B5ACB",
"0  c #345CC4",
"q  c #3B5BC3",
"w  c #345ACB",
"e  c #3C5CCC",
"r  c #3955CB",
"t  c #2C5CD4",
"y  c #2C5BDC",
"u  c #285AD7",
"i  c #3356D5",
"p  c #335CD3",
"a  c #3354DB",
"s  c #335ADA",
"d  c #3A5BDA",
"f  c #3A58D3",
"g  c #294DD5",
"h  c #1E67CF",
"j  c #2C61C8",
"k  c #3B64CB",
"l  c #3566CA",
"z  c #2D62D5",
"x  c #2762D9",
"c  c #3761D4",
"v  c #3B61D3",
"b  c #3462DC",
"n  c #3B67D8",
"m  c #3678D2",
"M  c #2C55E4",
"N  c #3356E2",
"B  c #335BE2",
"V  c #3759E4",
"C  c #2B6EEB",
"Z  c #2A68E5",
"A  c #2D77EB",
"S  c #3575E4",
"D  c #2C75F4",
"F  c #387AF8",
"G  c #3165F7",
"H  c #415DC7",
"J  c #445DD8",
"K  c #4662C6",
"L  c #4A65CD",
"P  c #4F6DCF",
"I  c #4663C9",
"U  c #576ECC",
"Y  c #4978CC",
"T  c #5270CD",
"R  c #5B75CB",
"E  c #5B79C8",
"W  c #4566D4",
"Q  c #4B68D5",
"!  c #556ED3",
"~  c #4C75D8",
"^  c #5C78D9",
"/  c #647EC3",
"(  c #6E7BC4",
")  c #6074DD",
"_  c #677DDA",
"`  c #6C74C8",
"'  c #436AE2",
"]  c #4968E5",
"[  c #5A7BE6",
"{  c #4572ED",
"}  c #895984",
"|  c #8D5F88",
" . c #8E618A",
".. c #91658D",
"X. c #93698F",
"o. c #956B92",
"O. c #926A93",
"+. c #977197",
"@. c #9B759A",
"#. c #9C7A9D",
"$. c #987298",
"%. c #9F7CA0",
"&. c #A07BA1",
"*. c #6C86BC",
"=. c #7986B7",
"-. c #7F90B1",
";. c #728EA7",
":. c #388BEB",
">. c #3B94E9",
",. c #368BFB",
"<. c #3B8CFD",
"1. c #3486F7",
"2. c #3F9AF7",
"3. c #3993F6",
"4. c #5581D3",
"5. c #6A85CC",
"6. c #6887C6",
"7. c #7C8DCA",
"8. c #6D95C9",
"9. c #7791CC",
"0. c #7996CA",
"q. c #6988D7",
"w. c #798BD2",
"e. c #7389D6",
"r. c #6598DB",
"t. c #7291D5",
"y. c #7D93D5",
"u. c #7B9BD3",
"i. c #799BDA",
"p. c #76A5D9",
"a. c #5A87E7",
"s. c #4A9AE9",
"d. c #5B9CED",
"f. c #5C9EE2",
"g. c #479DF7",
"h. c #579CFB",
"j. c #5D8AF4",
"k. c #6B8BE4",
"l. c #798BE3",
"z. c #6398E3",
"x. c #7998E7",
"c. c #5DA3EA",
"v. c #48A4F8",
"b. c #52A4F6",
"n. c #53ACFD",
"m. c #59AAF8",
"M. c #5BB4FC",
"N. c #68A7EA",
"B. c #7CAFE9",
"V. c #7CACE1",
"C. c #60B5EE",
"Z. c #76B2EC",
"A. c #78BAE8",
"S. c #66A9F5",
"D. c #63ADFA",
"F. c #69ABF6",
"G. c #72ABF3",
"H. c #66B7F9",
"J. c #74B5F1",
"K. c #78B8F7",
"L. c #7AC3F6",
"P. c #6FC2F6",
"I. c #8991BA",
"U. c #A689AC",
"Y. c #98A2BF",
"T. c #8594C7",
"R. c #8D9BDA",
"E. c #8698D6",
"W. c #949AC8",
"Q. c #86A3C7",
"!. c #9CAFCF",
"~. c #86A5D8",
"^. c #94A3D6",
"/. c #9DA6D3",
"(. c #96AAD9",
"). c #97B5CD",
"_. c #A9A9C6",
"`. c #A7B3C9",
"'. c #BDB5C9",
"]. c #A8AAD4",
"[. c #B0ACDD",
"{. c #ACB3D6",
"}. c #AAB8DB",
"|. c #A3B4DB",
" X c #B4B6DB",
".X c #B6ACCD",
"XX c #85A9E9",
"oX c #95AAE5",
"OX c #97A9E6",
"+X c #9FB5E7",
"@X c #81BCF7",
"#X c #86BBE3",
"$X c #A1AFE1",
"%X c #A8B9E6",
"&X c #A5BFF0",
"*X c #B5BAE1",
"=X c #C2BACC",
"-X c #B9C0DA",
";X c #88C4E8",
":X c #88CAF7",
">X c #8BD2F6",
",X c #9DD8FA",
"<X c #9CD3EC",
"1X c #B6C3EB",
"2X c #BBC5E7",
"3X c #A8D5EC",
"4X c #BDDFF3",
"5X c #B5DEFA",
"6X c #AFC9EB",
"7X c #ABE6F9",
"8X c #B6E6F9",
"9X c #BAE7E6",
"0X c #C7C8D9",
"qX c #CED8DF",
"wX c #C3CDED",
"eX c #C6CBE4",
"rX c #C7D2EA",
"tX c #CDD9F3",
"yX c #D3D4ED",
"uX c #CAE5ED",
"iX c #D3E5EC",
"pX c #DCEBEF",
"aX c #D4E5E7",
"sX c #CCECFA",
"dX c #C7E8F5",
"fX c #DAEEF4",
"gX c #D5E7F4",
"hX c #C7F4FD",
"jX c #DBF6FC",
"kX c #E0EBF6",
"lX c #E3FBFC",
"zX c #EEFBFA",
"xX c #F6FBF8",
/* pixels */
"} } } } } } } } } } } } } } } } } } } } } } } } } } } } } } } } } } } } } } } } } } } } } } } } } } } } } } } } } } } } ",
"} } } } } } } } } } } } } } } } } } } } } } } } } } } } } } } } } } } } } } } } } } } } } } } } } } } } } } } } } } } } ",
"} } } } } } } } } } } } } } } } } } } } } } } } } } } } } } } } } } } } } } } } } } } } } } } } } } } } } } } } } } } } ",
"} } } } } } } } } } } } } } } } } } } } } } } } } } } } } } } } } } } } } } } } } } } } } } } } } } } } } } } } } } } } ",
"} } } } } } } } } } } } } } } } } } } } } } } } } } } } } } } } } } } } } } } } } } } } } } } } } } } } } } } } } } } } ",
"} } } } } } } } } } } } } } } } } } } } } } } } } } } } } } } } } } } } } } } } } } } } } } } } } } } } } } } } } } } } ",
"} } } } } } } } } } } } } } } } } } } } } } } } } } }  . . .| } } } } } } } } } } } } } } } } } } } } } } } } } } } } } ",
"} } } } } } } } } } } } } } } } } } } }  .} } } } | } | .X{.} } } } } } } } } } } } } } } } } } } } } } } } } } } } } } ",
"} } } } } } } } } } } } } } } } } } } } } } } } =X=X} ~.T.E.y. .} } } } } } } } } } } } } } } } } } } } } } } } } } } } ",
"} } } } } } } } } } } } } } } } } } } } } | | Y.=.9.7.r.3X8XB.(.} } } } } } } } } } } } } } } } } } } } } } } } } } } } ",
"} } } } } } } } } } } } } } } } } } } } } | wXt.z.F.J.V.7X7XZ.u.} } | } } } } } } } } } } } } } } } } } } } } } } } } } ",
"} } } } } } } } } } } } } } } } } } } } }  .1Xr.h.m.K.A.;XA.N.u.o.} } } } } } } } } } } } } } } } } } } } } } } } } } } ",
"} } } } } } } } } } } } } } } } } } } } } ..wX6.N.S.F.J.J.S.d.~.X.} } } } } } } } } } } } } } } } } } } } } } } } } } } ",
"} } } } } } } } } } } } } } } } } } } } } } ..Y.*.XXK.F.S.d.z./.} } } } } } } } } } } } } } } } } } } } } } } } } } } } ",
"} } } } } } } } } } } } } } } } } } } } } } } } -.8.@XG.c.f.u.| } } } } } } } } } } } } } } } } } } } } } } } } } } } } ",
"} } } } } } } } } } } } } } } } } } } } } } } } | ;.p.Z.c.r.(.} } } } | .... .} } } } } } } } } } } } } } } } } } } } } ",
"} } } } } } } } } } } } } } } } } } } }  .} } } } } *.G.d.r.} } } | | kXeX}.|.}.2XyX..} } } } } } } } } } } } } } } } } ",
"} } } } } } } } } } } } } } } } } } } } } } } } } } *.a.h.i.} } | tXOX5.) ^ [ k.x.^.`.o...} | } } } } } } } } } } } } } ",
"} } } } } } } } } } } } } } } } | } } } } } } } } } : m h.z.} } R.^ ' b B d p c ' [ x.i. .} } } } } } } } } } } } } } } ",
"} } } } } } } } } } } } }  .} | | ..-X-X{. X2XtXo.} 8.m b.d.q._ Q d k ~ q.t.6., w B { j.e.+.| } } } } } } } } } } } } } ",
"} } } } } } } } } } } } } } } eX%Xw.R P P T ~ a.x.oXY h v.s.n d I 5.%X .@...#.wXe.r s S [ E.@. .} } } } } } } } } } } } ",
"} } } } } } } } } } } } } } eXe.I e d s s f s p e L 0 h M.H.Y 4.6X+.} } } } } } o.R.0 b ] ^ 1Xo.} | } } } } } } } } } } ",
"} } } } } } } } } } } | | -X< s p w H T t.E.y.y.e.R 8 >.H.L.#X4X} } } | } } } } } o.q.t c ] l.} } | } } } } } } } } } } ",
"} } } } } } } } } } }  .gXR d B 0 1 %X .o. . .} ..rXV.N.A.<X5XdX'.} }  .} } } } } } &Xk p ' U U.} } } } } } } } } } } } ",
"} } } } } } } } } } } } 7.t M p 1 wX@.} } } } }  .aXuX8XdXsXgXuXiX0X} } } } } } }  .kX5.t V W &X} } } } } } } } } } } } ",
"} } } } } } } } } } } tX> z t > %X@.}  ...o. .| qXiXgXgXgXpXaXjXsXdXfX} } } } } } | } |.w B n E.} } | } } } } } } } } } ",
"} } } } } } } } } } } oXr t r w.} }  .} | } } #.4X4XuXiXiXkXaXiXsX3X).0X} | } } } } } rXW B b t.} |  .} } } } } } } } } ",
"} } } } } } } } } } } 9.a y e %X} }  .} } } } |.8.;X<X9XuXfXpXfX8X;X~.(.eX} } } } } } U.^ s b t.| } } } } } } } } } } } ",
"} } } } } } } } } }  .6.M x I wXX.} } } } } X.5.m >.C.>X8XsXlXjX8X:XZ.p.{.$.} } } } } &.( p b t.} } } } } } } } } } } } ",
"} } } } } } } } } } o./ M t K ..} | } } } ..].Y S ,.v.D.>XdXzXxXsX,X@XB.~.'... .} } } %./ s s u.} } } } } } } } } } } } ",
"} } } } } } } } } } ..6.N y L ..} } } } } o.7.l A ,.g.m.L.8XzXxXlX7X:XZ.p.`.o.} } } } #.E s f (.} } } } } } } } } } } } ",
"} } } } } } } } } }  .9.a y W  .} } } } } } 4 l C ,.g.m.P.7XlXzXlX7X:XJ.N.Q.} } } } | eX~ s H }.} } } } } } } } } } } } ",
"} } } } } } } } } } | $Xr u v *X} } } } }  .4 8 C 1.2.b.H.>XhXjXhX,XL.J.S.Q.0X} } } } %Xb s U o.} } } } } } } } } } } } ",
"} } } } } } } } } } } | - t c OX} ....| } +.: # Z 1.2.v.M.P.,X8X7X>XK.F.m.u.rX| } } } y.B e w.| } | } } } } } } } } } } ",
"} } } } } } } } } } } } 4 9 s e.X.| } } } ..2 % u D 3.v.n.H.L.>X>XL.H.D.b.8.'.} } } +.T y - 1X .} | | } } } } } } } } } ",
"} } } } } } } } } } } } `.q i Q +X} } } } | 3 % u C 1.2.v.M.M.H.H.H.D.b.s.8.|  .} } E.p p / o.}  .} } } } } } } } } } } ",
"} } } } } } } } } } } } ..^ i c 8. .} } } o.T.% 6 x A 3.v.n.n.n.n.m.b.g.s.0.} } } } E y w +X} }  .} } } } } } } } } } } ",
"} } } } } } } } } } } } }  .- V ] XX} } } } `.& . g G F <.g.v.v.v.v.g.>.4.!.} }  .W.B 8 < X. ...| } } } } } } } } } } } ",
"} } } } } } } } } } } } } } /.H p ~ oX| | } } =.O + 9 z S :.3.3.,.,.1.F q.} } } } T p e ^.} | } o.} } } } } } } } } } } ",
"} } } } } } } } } } } } } } o.T.$ s [ OXo.} } } * X + # t Z C D D C z T  .} } } I.p w U $.} } } } } } } } } } } } } } } ",
"} } } } } } } } } } } } } } } o.^.L f Q ~.| } } } Y.&   . 5 7 7 @ o =. .} } } [.n t I ].} } } } } } } } } } } } } } } } ",
"} } } } } } } } } } } } } } } } | ].< w n r.&X} } } } I.; = = ; 3 } } } } } yX) M t E.}  . .} } } } } } } } } } } } } } ",
"} } } } } } } } } } } } } } } } } } ].E 9 b [ OX.. .} } o. .#.} } } } } } | l.e N L } } o.| } } } } } } } } } } } } } } ",
"} } } } } } } } } } } } } } } } } } } ..E.K r W k.6Xo.} } } } } } } | } ..w.t 9 e  X} } } ..} } } } } } } } } } } } } } ",
"} } } } } } } } } } } } } } } } } } } } } | R 9 b ~ (.o.} } } } } } } X.W.d t j R.} } } } } } } } } } } } } } } } } } } ",
"} } } } } } } } } } } } } } } } } } } } } } $.=.w N ! E. .} } ..| } } E.l y f ( | }  .} } } } } } } } } } } } } } } } } ",
"} } } } } } } } } } } } } } } } } } } } } } } } } R q k k. .} ..} ..T.K s q *.} } } } } } } } } } } } } } } } } } } } } ",
"} } } } } } } } } } } } } } } } } } } } } } } } }  .E t v _ } }  .R.J p f 4 o.| } | } } } } } } } } } } } } } } } } } } ",
"} } } } } } } } } } } } } } } } } } } } } } } } } }  ._ q e ^ } 0.q B i <  .} }  .} } } } } } } } } } } } } } } } } } } ",
"} } } } } } } } } } } } } } } } } } } } } } } } } } } $.y.$ w L c 8 8 L } } } } } } } } } } } } } } } } } } } } } } } } ",
"} } } } } } } } } } } } } } } } } } } } } } } } } } } } o.E.q B y 8 > } } } }  .} } } } } } } } } } } } } } } } } } } } ",
"} } } } } } } } } } } } } } } } } } } } } } } } } } | } } ..E.0 i H /.} } } } } } } } } } } } } } } } } } } } } } } } } ",
"o.} } } } } } } } } } } } } } } } } } } } } } } } } } } } }  .^.= T.o.} } } } } } } } } } } } } }  .} } } } } } } } } } ",
"} } } } } } } } } } } } } } } } } } } } } } } } } } } } } } } o._...} } } } } } } } } } } } } } |  .} } } } } } } } } } ",
"} } } } } } } } } } } } } } } } } } } } } } } } } } } } } } } } } | } } } } } } } } } } } } } } } } } } } } } } } } } } ",
"} } } } } } } } } } } } } } } } } } } } } } } } } } } } } } } } } } } } } } } } } } } } } } } } } } } } } } } } } } } } ",
"} } } } } } } } } } } } } } } } } } } } } } } } } } } } } } } } } } } } } } } } } } } } } } } } } } } } } } } } } } } } ",
"} } } } } } } } } } } } } } } } } } } } } } } } } } } } } } } } } } } } } } } } } } } } } } } } } } } } } } } } } } } } ",
"} } } } } } } } } } } } } } } } } } } } } } } } } } } } } } } } } } } } } } } } } } } } } } } } } } } } } } } } } } } } ",
"} } } } } } } } } } } } } } } } } } } } } } } } } } } } } } } } } } } } } } } } } } } } } } } } } } } } } } } } } } } } "
};
