/* XPM */
static char *_2459adfb1dc4b0da7e671fd73b7f2c7Oia5rWQ7MIt1Uki6[] = {
/* columns rows colors chars-per-pixel */
"60 60 247 2 ",
"   c #35296C",
".  c #35276B",
"X  c #3C287A",
"o  c #453376",
"O  c #357351",
"+  c #554467",
"@  c #574E76",
"#  c #69576B",
"$  c #765B6B",
"%  c #695677",
"&  c #71576E",
"*  c #537D76",
"=  c #7A6779",
"-  c #687B79",
";  c #5C415B",
":  c #896B79",
">  c #A8766D",
",  c #F55352",
"<  c #F26254",
"1  c #F46A6C",
"2  c #398E4D",
"3  c #469153",
"4  c #55AC52",
"5  c #66B953",
"6  c #598D78",
"7  c #699A76",
"8  c #779B7E",
"9  c #71B070",
"0  c #B1A43C",
"q  c #C2B432",
"w  c #98B15C",
"e  c #AFB14A",
"r  c #88AC71",
"t  c #EF8C6F",
"y  c #D6A36D",
"u  c #94C85D",
"i  c #8CC25D",
"p  c #98C765",
"a  c #93C57E",
"s  c #A4CD76",
"d  c #E9C975",
"f  c #D6C47D",
"g  c #583B8C",
"h  c #54388F",
"j  c #673C97",
"k  c #733F99",
"l  c #36709D",
"z  c #3E78A2",
"x  c #5A4295",
"c  c #564C90",
"v  c #6C449B",
"b  c #654699",
"n  c #74439C",
"m  c #7A449F",
"M  c #764A9D",
"N  c #6F5894",
"B  c #5B7190",
"V  c #7E7293",
"C  c #6D49A1",
"Z  c #7445A1",
"A  c #7B45A1",
"S  c #724CA1",
"D  c #7C4AA3",
"F  c #7956A5",
"G  c #6854A0",
"H  c #5D68A3",
"J  c #626CA5",
"K  c #6769A7",
"L  c #7769A7",
"P  c #6B75AB",
"I  c #6D7AAD",
"U  c #6571A7",
"Y  c #717BAD",
"T  c #7774AB",
"R  c #737CB2",
"E  c #7B77B3",
"W  c #7C6FB3",
"Q  c #5D5AA0",
"!  c #895984",
"~  c #8D5F88",
"^  c #915A8C",
"/  c #8E618A",
"(  c #846E80",
")  c #91658D",
"_  c #94688F",
"`  c #847384",
"'  c #947C88",
"]  c #956B91",
"[  c #986F94",
"{  c #837997",
"}  c #9A7597",
"|  c #8248A4",
" . c #9857B2",
".. c #8D5AAA",
"X. c #8765AA",
"o. c #8A68B1",
"O. c #966BB2",
"+. c #8476B3",
"@. c #9879B5",
"#. c #916FAD",
"$. c #A577BA",
"%. c #AB70B7",
"&. c #AE6BAA",
"*. c #B37AC2",
"=. c #6F8E8F",
"-. c #79B285",
";. c #4592AA",
":. c #7A81AE",
">. c #7896A9",
",. c #7B84B5",
"<. c #7C89BB",
"1. c #7986B5",
"2. c #6D8FAE",
"3. c #469BA9",
"4. c #78E0D2",
"5. c #968698",
"6. c #9D8088",
"7. c #AA9384",
"8. c #AC8F8D",
"9. c #8EB38D",
"0. c #ACBC92",
"q. c #848DBC",
"w. c #8787B8",
"e. c #9885BB",
"r. c #8994BC",
"t. c #9498BB",
"y. c #968FA7",
"u. c #A796A5",
"i. c #A786BB",
"p. c #A597BF",
"a. c #B390AF",
"s. c #8CA9A5",
"d. c #99A6BB",
"f. c #98B2A9",
"g. c #B9A7A8",
"h. c #AAA5B8",
"j. c #B6ACB5",
"k. c #BEB6B7",
"l. c #AAADA6",
"z. c #F39799",
"x. c #ED8A8C",
"c. c #F4BC97",
"v. c #C7BCBD",
"b. c #C5AAAA",
"n. c #F3B5B5",
"m. c #C2A2AE",
"M. c #AACE90",
"N. c #B3CDA5",
"B. c #9CC19C",
"V. c #D6C9A8",
"C. c #C4DDAA",
"Z. c #D4CFAF",
"A. c #EDD1B2",
"S. c #CEE4B8",
"D. c #E3CC9B",
"F. c #8692C1",
"G. c #8B95C3",
"H. c #8E99C4",
"J. c #949CC4",
"K. c #939EC9",
"L. c #9899C4",
"P. c #AA8AC1",
"I. c #AC9BC3",
"U. c #A59AC5",
"Y. c #B39AC7",
"T. c #B88DC5",
"R. c #96A3CB",
"E. c #9CA4CC",
"W. c #9CAACE",
"Q. c #9CA3C6",
"!. c #9DABD2",
"~. c #9CA7D1",
"^. c #9FB0D2",
"/. c #A2A4CB",
"(. c #A4ACCC",
"). c #AAABCC",
"_. c #A7A6C5",
"`. c #B7A7C8",
"'. c #ADB1CB",
"]. c #B7B7CA",
"[. c #A3ADD2",
"{. c #A8AED3",
"}. c #A4B2D4",
"|. c #ABB4D4",
" X c #ABB7D9",
".X c #B2B5D5",
"XX c #B4BAD5",
"oX c #B1B6D9",
"OX c #B5BCDB",
"+X c #B9BEDB",
"@X c #BAB9D4",
"#X c #B0AAD0",
"$X c #CB96C9",
"%X c #C4BCC4",
"&X c #C5B8D5",
"*X c #DAB9D9",
"=X c #CCA7D1",
"-X c #E3B5CF",
";X c #BCC2DD",
":X c #B7C0D9",
">X c #B5CDCC",
",X c #BEC4E1",
"<X c #BFCAE2",
"1X c #AAE6E2",
"2X c #CBC4C7",
"3X c #D4CAC8",
"4X c #C4C3D4",
"5X c #C2C5DD",
"6X c #C6CADD",
"7X c #CCCCDC",
"8X c #CAC4D7",
"9X c #D1CAD2",
"0X c #D5CADB",
"qX c #D3D3DD",
"wX c #D9D4D6",
"eX c #CED7D2",
"rX c #EADCCE",
"tX c #EACBD4",
"yX c #E7D9D9",
"uX c #F1D2CF",
"iX c #DAE9D2",
"pX c #EAE5D7",
"aX c #F7E6CD",
"sX c #C2C5E2",
"dX c #C4CBE3",
"fX c #CACDE4",
"gX c #DACDE3",
"hX c #CDD2E5",
"jX c #CFD5E9",
"kX c #D3D5E4",
"lX c #DBD4E3",
"zX c #D4D9E6",
"xX c #DDDBE6",
"cX c #D1D6E9",
"vX c #D3D8EA",
"bX c #DCDDEB",
"nX c #E2DEE9",
"mX c #E5D9E7",
"MX c #ECC6E6",
"NX c #DFE1EC",
"BX c #E4E3EC",
"VX c #EAE6EC",
"CX c #EBE8ED",
"ZX c #E6E6E9",
"AX c #F4EBEC",
"SX c #ECEAF1",
"DX c #F4F1F3",
/* pixels */
"! ! ! ! ! ! ! ! ! ! ! ! ! ! ! ! ! ! ! ! ! ! ! ! ! ! ! ! ! / rX[ ! ! ! ! ! ! ! ! ! ! ! ! ! ! ! ! ! ! ! ! ! ! ! ! ! ! ! ! ",
"! ! ! ! ! ! ! ! ! ! ! ! ! ! ! ! ! ! ! ! ! ! ! ! ! ! ! ! ! ~ y z.n.tX~ ! ! ! ! ! ! ! ! ! ! ! ! ! ! ! ! ! ! ! ! ! ! ! ! ! ",
"! ! ! ! ! ! ! ! ! ! ! ! ! ! ! ! ! ! ! ! ! ! ! ! ! ! ! ! ! ! t , , < z.x.tX/ ! ! ! ! ! ! ! ! ! ! ! ! ! ! ! ! ! ! ! ! ! ! ",
"! ! ! ! ! ! ! ! ! ! ! ! ! ! ! ! ! ! ! ! ! ! ! ! ! ! ! ! ! ! A.uXyXz.1 tX) ! ! ! ! ! ! ! ! ! ! ! ! ! ! ~ ~ ! ! ! ! ! ! ! ",
"! ! ! ! ! ! ! ! ! ! ! ! ! ! ! ! ! ! ! ! ! ! ! ! ! ! ! ! ! ) d } ] / ! ! ! ! ! ! ! ! ! ! ! ! ! ! ! ~ ~ ~ / ) / ! ! ! ! ! ",
"! ! ! ! ! ! ! ! ! ! ! ~ ~ ~ / _ ) ~ ! ! ! ! ! ! ! ! ! ! ! ~ f ~ ! ! ~ ! ! ! ! ! ! ! ! ! ! ! ! ! ! ! ! ! ! ~ / ! ! ! ! ! ",
"! ! ! ! ! ! ! ! ! ! ! ! ! ! / ] ) ~ / / ! ! ! ! ! ! ! ! ! ~ 4.) ! ~ ! ! ! ! ! ! ! ! ! ! ! ! ! ! ~ rXpX! ! ~ ! ! ! ! ! ! ",
"! ! ! ! ! ! ! ! ! ! ~ rXAX~ [ ~ ! ! ! ! ! ! ! ! ! ! ! ! ! 4X2.lX! / ! ! ! ! ! ! ! ! ! ! ! ! ! ! ~ aXt n.A.yX~ ! ! ! ! ! ",
"! ! ! ! ! ! ! ! ! ! / c.t n.tX[ ~ ! ! ) ! ! ! ! ! ! ! ! / e.Z `.! ! ~ ! ! ! ! ! ! ! ! ! ! ! ! ! ! aX< , , 1 1 z.) ! ! ! ",
"! ! ! ! ! ! ! ! ! ! ) c.< 1 , x.x.-X~ / ! ! ! ! ! ! ! ! VXF A o.) ~ ! ! ! ! ! ! ! ! ! ! ! ! ! ! ! aXuXDXtXz.n.} ! ! ! ! ",
"! ! ! ! ! ! ! ! ! ! ~ A.aXAXn.z.-X} ! ! ~ ! ! ! ! ! ! ! &XZ A A 0X! ! ! ) ! ! ! ! ! ! ! ! ! ! ! ~ rXpX] ! ! ! ! ! ! ! ! ",
"! ! ! ! ! ! ! ! ! / / d ! ~ ) ] ~ ~ ! ! ~ ! ! ! ! ! ! ) X.A A A P.) ! ! ! ! ! ! ! ! ! ! ! ! ! ! ~ D.D.! ! ! ! ! ! ! ! ! ",
"! ! ! ! ! ! ! ! ! ) _ f ! ~ ! ! ! ! ! ! ! ! ! ! ~ ! ! mXj A A m o.VX! ! ! ! ! ! ! ! ! ! ! ! ! ! ! V.Z.! ! ! ! ! ! ! ! ! ",
"! ! ! ! ! ! ! ! ! _ } 1X) / ! ! ! ! ! ! ! ! ! ! ! / DX).j A A k D 0XAX~ ! ! ! ! ! ! ! ! ! ! ! ! ! 1X1X! ! ! ! ! ! ! ! ! ",
"! ! ! ! ! ! ! ! ) ) qXI qX! ! ! ! ! ! ! ! ! ! ! ! CXp.F M i.m n m X.].~ ! ! ! ! ! ! ! ! ! ! ! ! ] r./.~ ! ! ! ! ! ! ! ! ",
"! ! ! ! ! ! ! ! ~ ~ =XA &X! ! ! ! ! ! ! ! ! ! ! ! p.c h e.|.o.k n g ,.~ ! / ! ! ! ! ! ! ! ! ! ~ DXX.O.0X! ! ! ! ! ! ! ! ",
"! ! ! ! ! ! ! ! / ! @.A O./ ! ! ! ! ! ! ! ) / ! ! 3Xu.G ].V.h.D j N k./ ! ! ! ! ! ! ! ! ! ! ! / 4XM D gX! ! ! ! ! ! ! ! ",
"! ! ! ! ! ! ! ! ! lXF A | mX! ! ! ! ! ! ! ! yX! ! lXM o b.c m.M j v I.! ! ! ! ! ! ! ! ! ! / ! } i.D A I.~ ! ! ! ! ! ! ! ",
"! ! ! ! ! ! ! ] ) p.n A | Y.) ! ! ! ! ! ! 0X`.! ! +.o X b.@ g.M j n D 0X! ! ! ! ! ! ! ! ! ! ~ BXM A m M 0X) ! ! ! ! ! ! ",
"! ! ! ! ! ! [ ! VXL A A A o.SX! ! ! ! ! ) Y.#.! lXx h X g.@ g.M j k n `.] ! ! ! ! ! ! ! ! ! ] `.j m m m &X! ! ! ! ! ! ! ",
"! ! ! ! ! / ! ! &Xb D A A D gX! ! ! ! ! ! X.m lX#XT L N ].2X`.@.@.e.....mX! ! ~ ! ! ! ! ! ! ~ L n m m A @.~ ! ~ ! ! ! ! ",
"! ! ! ! ! ~ ! ! e.M A A A D P.) ! ! ! ~ 0Xv n U.L.6X4XU.qXxX@XU.6XZX.X`.9X! ! ) ! ! ~ ! ! [ nXh m m m | S lX! ! ! ! ! ! ",
"! ! ! ! ! ! ! R.L F m A A S @.d.! ! ! ! &Xw.r.U.).J././.Q.Q./.Q.W.).@X4XCX! ! ! ) ! ~ ! ! zXT K D m m D Q E qX! ! ! ! ! ",
"! ! ! ! ! / nXG h Z A A A Z v F [ ! ! ! } (.).] _.q.E.G.G.H.G.G.[.K.R t.nX! [ } ) / ! ! } #Xx x A m m A j b #X~ ! ! ! ! ",
"! ! ! ! ! / `.g x S S S S S n Z &X! ! rXD.[.+X~ ) .XbXdXdXdXdXdXBXkX+XZX] ! ! A.aX] ! [ DXX.g v S M S S M v o.BX! ! ! ! ",
"! ! ! ! ! ~ _.K w.J.R._./.K.y.T `.! ! pXV.E.dX[ ! +XCXvX/.U.U.vXCXbXkX) ! ~ ! pXZX_ ! ) SXL T t.H.d.'.(.t.,.T nX! ! ! ! ",
"! ! ! ! ! ) CX;XK.E.[..X+X+X5XbXCX! ! gXe.|.5X/ / +XVXvX+.w.w.vXVXbXfX! ! ! / )..X] ! ! ] VXW.r.K.E..XXXXXfXmX~ ! ! ! ! ",
"! ! ! ! / / _ xXE.oX,XjXhXsX+XBX) ! ZXO.D w.)./ / XXVXvXsXsX5XvXVXzX).! ! [ nXF F SX/ ~ ! } |.E.|.fXhXfXsXfX) ! ! ! ! ! ",
"! ! ! ! ! ~ ~ xX|.g.6XvXlXg.kX/ ! ) 0XA D @.~ ! ! OXVXvXzXrXvXzXCXkX|.~ ! ) e.M A Y.] ) ! / sXh.j.jXvXk.2XxX! ! ! ! ! ! ",
"! ! ! ! ! ~ ~ xX'.= ].vX0X% 0X! ! CX#.A F | &X) ! ).8XqXd 0 d fX&X).r.! / &Xm F D ..nX~ ! _ sXy.{ jXvX5.u.VX! ! ! ! ! ! ",
"! ! ! ! ! ! ! nX'.= ].vX0X% 0X! } U.x A b C o.SX) +XBXZ.e =.e wXCXdX).~ lXo.b b A x e.[ ! ~ sXy.V hXkX5.u.bX! ! ! ! ! ! ",
"! ! ! ! ! ! ~ xX'.= ].vX9X% qX_ qXv j n M Z v I.) +XVXZ.e w q wXCX6X(.[ Y.b v v Z S A gX! ! <Xy.V hXvX5.u.BX! ! ! ! ! ! ",
"! ! ! ! ! SXmXgX=Xa.=X*X*Xi.*XAX@XQ P ,.<.<.w.8X) +XBXZ.r w e wXCX6X_.[ xXr.F.G.F.R K U./ nX&XT.T.*X*X$X$XMXmXmX! ! ! ! ",
"! ! ! ! ! 0X@.i.O.$XO.$X%.$X$X$X*X.X5.W.u.l.@X! ) +XVXZ.r w 0 wXVX6X}.) ! 7X].y.hXg.4X} mX@.P.%.%.$XO.$X%.*.$X=X~ ! ! ! ",
"! ! ! ! ! mX@.e.I.`.`.`.I.=X$X$XtX+X$ W.' { XX! ).(.BX9XV.Z.D.qXVX6X,.(.CXI.u.V hX' 8X) VXp.I.Y.I.`.I.`.`.`.`.*X~ ~ ! ! ",
"! ! ! ! ) VXr.I 1.1.<.<.<.1.U ,.qX@X: /.5.F e.&X/.hXhX|.|.fX|.|.AXxXJ.w.#XF } u.8Xu.0XDXSXr.P <.<.<.<.<.<.1.:.%X_ ~ ! ! ",
"! ! ! ! / ~ CX|.W.OXsXsXdX,X@.i.@.@.#.#.X.m g o e.CXOX:XqX].7X}.+XVXt.X h A ..=X%.-X*.$X$X=XT.[.!.oXsXsX,XoXxX~ ] ~ ! ! ",
"! ! ! ! ! ! ! 5X^.sXvXvXvXvXX.+.L L L L G M j c L.CXdX7X2.3.d.hX XbXQ.c x Z n w.e.P.P.P.P.i.T.[.!.sXkXkXkXhX! ! ! ] ! ! ",
"! ! ! ! ! ! ! 4Xy.6Xg.qXvXvXY P R 1.1.R b v b c (.SXkX9X;.3.>.lXOXNX{.H b b v +.+XXX|.}.E.K.w.R.[.4Xg.qXj.kX! ! ! ! ! ! ",
"! ! ! ! ! ! ! &X= %X& 2XvXvXG.K.R.5.t.H.(.:X.XU ).SXkX3Xz ;.>.kX:XNX(.H E.+XoX].hXkXkX3XkXvX{.R.[.j.& v.# 7X! ! ! ! ! ! ",
"! ! ! ! ! ! ! @X= %X# 2XvXvXH.K.5.; & t.J.w.w.H (.CXkX3Xl ;.2.kX:XBX(.H :./.U.6.kXzXg.$ g.vX{.R.[.j.# 2X# 7X! ! ! ! ! ! ",
"! ! ! ! ! ! ! :X= ].% 2XvXvXH.K.` + + t.}.hXOXJ /.SXkX9Xl ;.2.zX:XBX(.H R.jXfX{ kXzX6.: 6.vX{.E.[.j.# 2X& 4X! ! ! ! ! ! ",
"! ! ! ! ! ! ! 4X= %X( 2XvXvXH.K.` # # t.|.vX;XJ d.CXkX9X:.e.d.kX:XNXd.H R.jXfX{ kXvX7.> 8.vX{.R.}.j.: 3X: 8X! ! ! ! ! ! ",
"! ! ! ! ! ! ! 4X'.dXkXkXvXvXH.J.` + + J.|.vXXXB 9 iXzX*XM j P.kX+XeX9 * s.hXhX{ kXzX' $ ' vX[.R.}.6XqXjXqXfX/ ! ! ! ! ! ",
"! ! ! ! ! ! ! ;X XdXvXvXvXvXH.H.` + + t.|.vX-.- O.$.i.v n M j X.e.$.@.6 5 >XhX{ kXzX' $ 6.jX[.R.}.sXvXjXjXhX) ! ! ! ! ! ",
"! ! ! ! ! ! ! ;X|.dXvXvXvXjXG.H.5.= = J.|.>X7 O v n n A ^ y D n v n c 2 5 >XhXV kXzXg.8.b.jX[.R.}.sXvXvXjXfX~ ~ ! ! ! ! ",
"! ! ! ! / ! ~ XX(.;XfXdXfXsXG.H.J.r.t.H.|.9.7 * O. . . . .&. . . . .X.6 -.9.>XL.zXzXzXeXeXvX[.K.(.+XfX6X6X5X! ~ ! ! ! ! ",
"! ! ! ! ! ! ! /.R.|.oXoXoX Xq.q.q.=.<.Y Q.K.r.T +.+.W +.W +.W T W +.T ,.q.L.XXJ.XX@XXX:X:XfX.Xq.K.!.oXoXoX|.] ! ! ! ! ! ",
"! ! ! ! ! ! ! (.[.OX,X;X;XOXR J U U P J ,.XXW.Y h.3XXX:XOXyX;X4XW.3Xr.q.W.|.[.J.XX{.|.|./.(.Q.F.!. X,X,X,XOX) ! ! ! ! ! ",
"! ! ! ! ! / xXW.!.OX,X,X,XOXR I I Y I U q.;X!.R h.%XXX4X%Xv.3X7X/.2Xt.q.|.dX.XH.+X5XfXsX;X;X|.F.W.|.,X,X,XOX~ ! ! ! ! ! ",
"! ! ! ! ~ kX<.G.!.OX,X,X,XOXR I U 1.J H r.;X!.R t.h.'.g.% @ ` v.q.h.w.q.|.dX.XJ.L.5XsXsX5X;X.XF.W.|.,X,X,XOX[ ! ! ~ ! ! ",
"! ! ~ ! ) (.U F.[.+X,X,X,X+XP J J P J Y r.;X!.R h.9X%X%   .   5._.2Xw.q.}.dXXXE./.(.;X;X,X+X.XF.!. XsX,X,XOXkX) ! ! ! ! ",
"! ! ! ) nXr.U 1.G.E.E.E.W.R.P J J J J Y q.;X!.R h.3Xk.@     . ' ).v.w.q.}.dX.XK.:X|.+X,X5X;XJ.R q.H.E./.E.J.L.kX! ! ! ! ",
"! ! ! xXF.U I K.!.;X,X,XsXoXq.:.q.J P I r. X!.R h.9Xh.o     . % h.v.w.q.[.+X.XJ.+XsX;X,X[.oX<.F.R. X,X,XsXoXr.XX~ ! ! ~ ",
"! ! ! |.<.J <.~.}.,X,X;XOX+XE.'.5X1.Y J (.}.!.R h.9Xh.o       % h.%Xw.q.[. XdXJ.|.:XsXJ.<.|.@Xq.R.OX;XsXsX;XE.oXxX~ ! ! ",
"! ! _ |.J J >.9 -.>X;X;X+X+Xt.'.r.1.P P XX}.!.R h.9Xh.o       % _.%Xw.q.!.}.dXJ.E..X5XP r.XX;X.XE.OX;XsX5X+XXXr.Q.BX! ! ",
"! ! fX,.U H 4 5 5 a +X+X5X[._.r.q.Y H H.OX!.!.R h.9Xh.o       % _.2Xw.q.!.!.OX|.K..XXX1.w.J.J./.XX|.[.XX6X5X+XG.q.5X~ ! ",
"~ ~ Q.I H 6 3 4 4 9 >X;X;XE.J.q.Y H H oX,XE.<.,.].2Xg.( = = = ' j.@XE.Y q.E.;XfXJ.[.E.J.P Y F.K.[.G.[.sXfXf.XX[.1./.VX! ",
"S.N.9.8 7 7 3 2 3 9 B.B.B.s.s.>.=.B B :XsXK.I w.].8.7.7.7.7.7.7.l.E.|.R ,.E.,XhXs.s.f.f.=.=.s.s.f.s.s.N.N.9 r 0.r 9.M.S.",
"iXS.C.C.C.M.M.M.s s s p p p u u p p i s M.9.r 9.2X3X3X3X3XZ.V.0.0.f.B.r r 9.M.M.p u u u u p p p p p p s s M.M.M.C.C.C.iX"
};
