/* XPM */
static char *d1542ded7dbf4335cdcd5410ac3f6e249CaKcIkRpBwgVryi[] = {
/* columns rows colors chars-per-pixel */
"60 60 240 2 ",
"   c #0A1D21",
".  c #0B292C",
"X  c #2B2E2E",
"o  c #081C1F",
"O  c #523D27",
"+  c #46391E",
"@  c #334647",
"#  c #35777D",
"$  c #15696E",
"%  c #4A5D61",
"&  c #757A74",
"*  c #5F514B",
"=  c #B32B11",
"-  c #BC2E11",
";  c #B63211",
":  c #B73915",
">  c #943A29",
",  c #C73614",
"<  c #DC3D16",
"1  c #D63C16",
"2  c #E53D16",
"3  c #E43F18",
"4  c #BC4317",
"5  c #BD5414",
"6  c #914A32",
"7  c #B4442B",
"8  c #B14F2C",
"9  c #BE643D",
"0  c #8A441A",
"q  c #C74614",
"w  c #D5431A",
"e  c #DA4717",
"r  c #C85717",
"t  c #DC5414",
"y  c #D85918",
"u  c #CE420E",
"i  c #E9540E",
"p  c #EA5B0C",
"a  c #E7540E",
"s  c #E54215",
"d  c #E54B14",
"f  c #E54B1A",
"g  c #E64815",
"h  c #E55415",
"j  c #E45B15",
"k  c #E6541C",
"l  c #E85815",
"z  c #E14E0E",
"x  c #DD651A",
"c  c #EC650A",
"v  c #EC6A0B",
"b  c #ED6C07",
"n  c #EE7308",
"m  c #E86612",
"M  c #E76717",
"N  c #EA7817",
"B  c #C65534",
"V  c #D0542D",
"C  c #E65B23",
"Z  c #E65A29",
"A  c #E55427",
"S  c #E35935",
"D  c #E34D27",
"F  c #D46C33",
"G  c #E66827",
"H  c #EA7625",
"J  c #E56B37",
"K  c #E77637",
"L  c #9B5C49",
"P  c #B05C47",
"I  c #9C6757",
"U  c #8E786C",
"Y  c #B17566",
"T  c #A56556",
"R  c #E35E40",
"E  c #C76446",
"W  c #C3775C",
"Q  c #D47248",
"!  c #E67942",
"~  c #EC8328",
"^  c #EA8738",
"/  c #EE9838",
"(  c #92857B",
")  c #B38F78",
"_  c #B9905D",
"`  c #DC8448",
"'  c #D08A56",
"]  c #E88A44",
"[  c #EC9649",
"{  c #E79858",
"}  c #EE9356",
"|  c #EDA458",
" . c #EDAB52",
".. c #DA896A",
"X. c #D69868",
"o. c #CB977E",
"O. c #DA967A",
"+. c #C58970",
"@. c #E69C78",
"#. c #E19867",
"$. c #D6AD76",
"%. c #EAA567",
"&. c #E6AA76",
"*. c #EAB67A",
"=. c #F1B677",
"-. c #EBB66E",
";. c #F7DB5D",
":. c #F3C55B",
">. c #FCEC55",
",. c #F3CB68",
"<. c #F0C474",
"1. c #F7DB65",
"2. c #F9E767",
"3. c #617C82",
"4. c #447986",
"5. c #895984",
"6. c #8D5F88",
"7. c #8F618A",
"8. c #8E6087",
"9. c #92658D",
"0. c #94698E",
"q. c #956B91",
"w. c #986F93",
"e. c #9B7396",
"r. c #9E779A",
"t. c #A27D9E",
"y. c #178388",
"u. c #0F8F91",
"i. c #2D9193",
"p. c #15A19E",
"a. c #2EA1A3",
"s. c #1F9FA1",
"d. c #548D98",
"f. c #668B94",
"g. c #66919B",
"h. c #728B8A",
"j. c #6C9CA4",
"k. c #799BA5",
"l. c #4EAFB0",
"z. c #6CA4AB",
"x. c #77A6AB",
"c. c #78ADB5",
"v. c #77B6BC",
"b. c #6BAEB5",
"n. c #5A9CA5",
"m. c #7EC6B4",
"M. c #7ABDC3",
"N. c #77BCC1",
"B. c #7DC3C7",
"V. c #958B85",
"C. c #8B958D",
"Z. c #8E968C",
"A. c #A59389",
"S. c #B2978C",
"D. c #8CA695",
"F. c #AFAE92",
"G. c #BA9DAD",
"H. c #84A4A7",
"J. c #82B6B9",
"K. c #96B4AC",
"L. c #AAB2B1",
"P. c #849FAB",
"I. c #C19A8C",
"U. c #D79C86",
"Y. c #C9A98E",
"T. c #D9A78B",
"R. c #D6AA91",
"E. c #D8B89C",
"W. c #CCAF90",
"Q. c #E7A888",
"!. c #E6B688",
"~. c #E8B997",
"^. c #F4B996",
"/. c #F5AB8A",
"(. c #D7B3A6",
"). c #C1A8B7",
"_. c #D5B9B7",
"`. c #CCB0A9",
"'. c #E9B9A2",
"]. c #93CBAA",
"[. c #8BC6B5",
"{. c #AFD3AB",
"}. c #A5D09D",
"|. c #DDC597",
" X c #E9C698",
".X c #F5C797",
"XX c #ECD08E",
"oX c #F6E789",
"OX c #DAC8A6",
"+X c #D4CEB0",
"@X c #E8C7A8",
"#X c #F3CDAC",
"$X c #F7C9A6",
"%X c #EAD7A9",
"&X c #F6D4AB",
"*X c #E8D5B8",
"=X c #F6D4B2",
"-X c #F9D6B3",
";X c #FBD9B6",
":X c #FBD9B8",
">X c #F0D9B0",
",X c #E3C7B2",
"<X c #CFE4B6",
"1X c #E6E8B8",
"2X c #F4E5B4",
"3X c #EAECAF",
"4X c #AFB8C1",
"5X c #83CACE",
"6X c #85C5C9",
"7X c #85CDD0",
"8X c #8CCED2",
"9X c #92D1D3",
"0X c #94CCCC",
"qX c #A8D7D5",
"wX c #B9D2D5",
"eX c #B0C8CA",
"rX c #DBCAC8",
"tX c #C8CAD3",
"yX c #C9D6D9",
"uX c #D6D7D0",
"iX c #E8D9C7",
"pX c #E7DCD8",
"aX c #EBC9C2",
"sX c #D9EACA",
"dX c #E8E8C7",
"fX c #F5E7C6",
"gX c #EAF2CD",
"hX c #EBF1C7",
"jX c #ECE5D7",
"kX c #F3EAD5",
"lX c #F5EDDD",
"zX c #E9F2D2",
"xX c #E7F1DA",
"cX c #F6F4D2",
"vX c #ECE6E2",
"bX c #E7F2E5",
"nX c #E6F3EC",
"mX c #EAF4EA",
"MX c #F5F3EA",
"NX c #DBDCE1",
/* pixels */
"5.5.5.5.5.5.5.5.5.5.5.5.5.5.5.5.5.5.5.5.5.5.5.8.9.w.5.6.&.k &.6.8.q.q.q.9.5.5.5.5.5.5.5.5.5.5.5.5.5.5.5.5.5.5.5.5.5.5.5.",
"5.5.5.5.5.5.5.5.5.5.5.5.5.5.5.5.5.5.5.5.5.5.8.6.5.5.6.{ s #.5.5.q.t.6.5.6.5.5.5.5.5.5.5.5.5.5.5.5.5.5.5.5.5.5.5.5.5.5.5.",
"5.5.5.5.5.5.5.5.5.5.5.5.5.5.5.5.5.5.5.5.5.5.w.6.6.8.iXG Z fX!.{ [ -.>X6.5.5.5.5.5.5.5.5.5.5.5.5.5.5.5.5.5.5.5.5.5.5.5.5.",
"5.5.5.5.5.5.5.5.5.5.5.5.5.5.5.5.5.5.5.5.5.6.5.8.fX2X2XXX~ G s p c p i ^ %X9.5.5.5.5.5.5.5.5.5.5.5.5.5.5.5.5.5.5.5.5.5.5.",
"5.5.5.5.5.5.5.5.5.5.5.5.5.5.5.5.5.5.5.5.5.5.8.&.m a f k s 2 s g a p n b M *.5.5.5.5.5.5.5.5.5.5.5.5.5.5.5.5.5.5.5.5.5.5.",
"5.5.5.5.5.5.5.5.5.5.5.5.5.5.5.5.5.5.5.5.5.w.%.v H ,.2.2.! J ] l c n b c p l | 6.5.5.5.5.5.5.5.5.5.5.5.5.5.5.5.5.5.5.5.5.",
"5.5.5.5.5.5.5.5.5.5.5.5.5.5.5.5.5.5.5.5.q. XN c  .>.>.>.;.;.>.[ a c d i p g f %.5.5.5.5.5.5.5.5.5.5.5.5.5.5.5.5.5.5.5.5.",
"5.5.5.5.5.5.5.5.5.5.5.5.5.5.5.5.5.5.5.5.kX^ ~ ^ ;.>.>.2.2.1.1.,.f s 2 2 s 2 2 e %.q.5.5.5.5.5.5.5.5.5.5.5.5.5.5.5.5.5.5.",
"5.5.5.5.5.5.5.5.5.5.5.5.5.5.5.5.5.5.5.6.=.v %.oX2.:.[ J Z Z Z Z s 2 2 2 2 2 2 e ` *X5.5.5.5.5.5.5.5.5.5.5.5.5.5.5.5.5.5.",
"5.5.5.5.5.5.5.5.5.5.5.5.5.5.5.5.5.5.5.*X~ a | ,.] C g 2 2 2 2 2 d s 2 2 2 2 2 2 e R.9.5.5.5.5.5.5.5.5.5.5.5.5.5.5.5.5.5.",
"5.5.5.5.5.5.5.5.5.5.5.5.5.5.5.5.5.5.6.=.m d Z G h 2 2 2 2 2 2 2 s h s 2 2 s 2 2 2 B iX5.5.5.5.5.5.5.5.5.5.5.5.5.5.5.5.5.",
"5.5.5.5.5.5.5.5.5.5.5.5.5.5.5.5.5.5.r.[ N s d m s 2 2 2 2 2 2 2 2 s j g 2 s d 2 2 , Y.5.5.9.5.5.5.5.5.5.5.5.5.5.5.5.5.5.",
"5.5.5.5.5.5.5.5.5.5.5.5.5.5.5.5.5.5.%X<.k s j i 2 2 2 2 2 s g 2 2 2 s h t w w w 2 , W 5.5.5.5.8.9.5.5.5.5.5.5.5.5.5.5.5.",
"5.5.5.5.5.5.5.5.5.5.5.5.5.5.5.6.8.5.kX&.d d m p s 2 2 2 2 s M 2 2 2 < w e j d u , , 9 5.5.8.5.8.6.5.5.5.5.5.5.5.5.5.5.5.",
"5.5.5.5.5.5.5.5.5.5.5.5.5.5.5.5.5.5.t.{ j s v b s 2 2 2 2 K #.g 2 e w 2 2 2 e y 5 4 F ,X,X_.w.5.5.5.5.5.5.5.5.5.5.5.5.5.",
"5.5.5.5.5.5.5.5.5.5.5.5.5.5.6.5.5.9.kX/ d 2 m b p 2 2 2 g %.T.K s w 2 2 , - : , ; w d d d d J q.5.5.5.5.5.5.5.5.5.5.5.5.",
"5.5.5.5.5.5.5.5.5.5.5.5.5.5.5.5.q.>X/ m g 2 m p i s 2 2 s { T.!.G 2 2 , ; : B R V < s s 2 2 2 !.6.5.5.5.5.5.5.5.5.5.5.5.",
"5.5.5.5.5.5.5.5.5.5.5.5.5.5.w.!.^ N m p 2 2 G M 2 2 2 2 2 C &.$X.XG 1 ; ; ; 7 V S 3 s y y s 2 &.5.5.5.5.5.5.5.5.5.5.5.5.",
"5.5.5.5.5.5.5.5.5.5.5.5.8. X~ v n v v i 2 < Q ! f 2 2 2 2 2 G !.;X.X8 4 ; ; : B S 2 3 s y r s ~.6.5.5.5.5.5.5.5.5.5.5.5.",
"5.5.5.5.5.5.5.5.5.5.5.5.&.p a l N v c p e e X.!.%.J k f s 2 2 { =XE.X O 0 : : B S 2 2 2 g r h *X5.5.5.5.5.5.5.5.5.5.5.5.",
"5.5.5.5.5.5.5.5.5.5.5.5.x s J | N b p i 2 F ) R.-X&X.X=.} G s K =X( L.% . + 6 B D 2 2 2 2 x x jX5.5.5.5.5.5.5.5.5.5.5.5.",
"5.5.5.5.5.5.5.5.5.5.5.8.y } fX^ c g 2 1 q O X X U @X;X:X;X.XG { #X& eX% o . i._ G s 2 2 2 d r (.6.5.5.5.5.5.5.5.5.5.5.5.",
"5.5.5.5.5.5.5.5.5.5.5.0.^ kX=.d s 2 2 e 0 V.k.L.X @ F.;X:X;X=..XE.h.l.u.y.a.C.Q.#.G 2 2 2 2 q +.9.5.8.5.5.5.5.5.5.5.5.5.",
"5.5.5.5.5.5.5.5.5.5.5.e.*.lXG 2 2 2 2 t : G.wXeX@   X W.;X:X-X;XY.L.wXa.a.) /.^.O.V d 2 2 s 4 W 5.r.iXF.{.K.9.5.5.5.5.5.",
"5.5.5.5.5.5.5.5.5.5.5.6._.oXd 2 2 2 g q = Y eXi..     @ E.;X:X;XW.rXaX'.~..X$X~.9 : j 2 2 M = X.hXgXzX{.m.{.8.5.5.5.5.5.",
"5.5.5.5.5.5.5.5.5.5.5.5.q.oXh 2 2 2 t : = : `.b.p.$ $ l.# #X;X;X;X$X=X;X-X&X$XW = : t 2 2 r ' dXnXnXnX<X].dX9.5.5.5.5.5.",
"5.5.5.5.5.5.5.5.5.5.5.5.8.vX] 2 2 2 t = = = E U.( h.g.h.Y.-X;X;X:X:X:X:X;X@XE = = : j s x  XmXmXnXnX<X[.1Xe.5.5.5.5.5.5.",
"5.5.5.5.5.5.5.5.5.5.5.9.5.e.iXj 2 2 t = = = B /././.^.&X-X;X#X'.:X:X:X;XQ.7 = = = q d G OXnXnXbX1X{.m.{.pX5.5.5.5.5.5.5.",
"5.5.5.5.5.5.5.5.5.5.5.q.8.5.e.fXH s j , = = - ..$X&X&X-X;X;X-X=X:X=XR.A.I P 7 = : x H OXnXzXzXxXnXsXm.hXq.5.5.5.5.5.5.5.",
"5.5.5.5.5.5.5.5.5.5.5.8.iX+X{.<X3X*.H -.Y.$.K w B Q ..@.@.@.O.O.o.h.x.c.j.A.T.F r r |.gXzXbXnXnXnXzX}.vX5.5.5.5.5.5.5.5.",
"5.5.5.5.5.5.5.5.5.5.5.9.%X<X[.{.nXmXzXXXXXiXxX%X` , - - - B ~.~.E.L.9X7X7Xv.A.W = ' gXnXnXnXnXnXnX1X+X9.5.5.5.5.5.5.5.5.",
"5.5.5.5.5.5.5.5.5.6.%X5.8.).1X].{.sXxXbXbXdX%X3XdX X! s s @..X.X#XwXqX9X8X5Xz.U = ' zXgXhXgXgXzXzX3X0.5.5.5.5.5.5.5.5.5.",
"5.5.5.5.5.5.5.5.5.iX-.5.5.5.G.2X}.m.[.<XzXzXzXgXgXgXgX{ D .X$XO.V.7X8X6Xc.x.x.U 7 : |.nXnXnXnXnXnX1X5.5.5.5.5.5.5.5.5.5.",
"5.5.5.5.5.5.5.5.8.^ XX5.5.6.MX] V F.].xXnXnXnXnXbXzXgX XJ -X#X8 ( 9X6Xx.f.f.f.V.P = : $.xXnXnXnXnX*X9.5.5.5.5.5.5.5.5.5.",
"5.5.5.5.5.5.5.5.*Xs !.5.5.kX[ u = 8 F.sXnXnXbXgXgXnXbX' ..;XT.= 6 c.f.h.S.V.3.A.& > = = ` %XdXdX+X8.5.5.5.5.5.5.5.5.5.5.",
"5.5.5.5.5.5.5.5.!.2 M *.&.N c s , = 8 $.3XgXgXbXnXnX%XE [.z.8 , , I.@X;X;X~.L J.c.6 = 9 OX$.iX9.6.5.5.5.5.5.5.5.5.5.5.5.",
"5.5.5.5.5.5.5.5.&.2 2 i c v s s 2 1 = = T.nXnXnXnX1XJ U qXv.> 1 +.;X:X;X-X@XL D.0X& W.q.6.9.9.5.5.5.5.5.5.5.5.5.5.5.5.5.",
"5.5.5.5.5.5.5.5.>Xe 2 s z t d s 2 2 , = X.bXnXnXsX' w K.9Xg.7 A.[.K.+X;X-X@XY V.qXz.eX9.6.5.5.5.5.5.5.5.5.5.5.5.5.5.5.5.",
"5.5.5.5.5.5.5.5.w.!.W ` ] M d 2 2 2 2 - 4 X.|.$.D.L I qXB.* T qX9X5X6XL.+XK.f.H.0X6Xc.wXH.q.5.5.5.5.5.5.5.5.5.5.5.5.5.5.",
"5.5.5.5.5.5.5.5.5.6.5.E.~ h 2 2 2 2 2 u ; ; 4 1 U z.c.J.g.6 H.9X8X7X7X6Xv.M.c.x.J.H.D.C.L.5.8.5.5.5.5.5.5.5.5.5.5.5.5.5.",
"5.5.5.5.5.5.5.5.5.9.@XN c 2 2 2 2 s e , 1 < < s Q Y.OXOX6 h.c.5X7X7X7XM.v.J.c.k.tXE.#X#X@X(._.5.5.5.5.5.5.5.5.5.5.5.5.5.",
"5.5.5.5.5.5.5.5.6.fXH n g g 2 2 g e 1 2 2 2 S @.^.~.~.Q 1 L ( 8X8X8X7X7X5X8XJ.k.yX_.~.R.(.(.).5.5.5.5.5.5.5.5.5.5.5.5.5.",
"5.5.5.5.5.5.5.5.5.&.b v d p s s e 1 2 2 2 2 3 D S S D < 2 C L x.N.M.6Xv.z.k.h.f.tX5.rXrX9.5.5.5.5.5.5.5.5.5.5.5.5.5.5.5.",
"5.5.5.5.5.5.5.5.w.M b c b c s t e a s s s 2 2 2 2 2 2 f ^ ^ < 7 A.S.F.F.) I.I.rX0.5.5.5.5.5.5.5.5.5.5.5.5.5.5.5.5.5.5.5.",
"5.5.5.5.5.5.5.5.*Xi p b p p j t c c p a d k C C G ^ | &X{ s s F U.=X;X;XR.I.S.9.6.5.5.5.5.5.5.5.5.5.5.5.5.5.5.5.5.5.5.5.",
"5.5.5.5.5.5.5.5.@Xi d c s s d p b b l { ~.iXiXrXlXvXMX.Xv d %.lXiX$X;X;X~.+.`.5.6.5.5.5.5.5.5.5.5.5.5.5.5.5.5.5.5.5.5.5.",
"5.5.5.5.5.5.5.5.#Xi s s 2 2 h s c M !.8.6.8.5.5.5.5.pX^ g %.&X{ MX'.&X-X Xo._.6.5.5.5.5.5.5.5.5.5.5.5.5.5.5.5.5.5.5.5.5.",
"5.5.5.5.5.5.5.5.*Xi 2 2 2 2 h 2 p =.9.5.*X[ { iX5.5.rXZ A kX*.%.>XL.~.$X^.O._.5.5.5.5.5.5.5.5.5.5.5.5.5.5.5.5.5.5.5.5.5.",
"5.5.5.5.5.5.5.5.pXM 2 2 2 2 h 2 j ,X5.6.!.=.{ | ).6.pXK Z lXMX%XK.z.@X$XQ..._.5.5.5.5.5.5.5.5.5.5.5.5.5.5.5.5.5.5.5.5.5.",
"5.5.5.5.5.5.5.5.6.{ 2 2 2 2 d s h @X8.e.rXe.jX .`.5.8.@X]  X1XD.B.v.`.R.+.O._.5.5.5.5.5.5.5.5.5.5.5.5.5.5.5.5.5.5.5.5.5.",
"5.5.5.5.5.5.5.5.8.*XC 2 2 2 2 f s %.jXr.8.9.vX<.rX5.5.9.vX].n.B.7XB.f.( T.Q._.5.5.5.5.5.5.5.5.5.5.5.5.5.5.5.5.5.5.5.5.5.",
"5.5.5.5.5.5.5.5.5.8.~.k 2 2 2 2 2 k =.pX0.vX.X<.vX8.5.5.tXp.u.v.6Xz.f.V.@X~.,X5.5.5.5.5.5.5.5.5.5.5.5.5.5.5.5.5.5.5.5.5.",
"5.5.5.5.5.5.5.5.5.6.8. XK f 2 2 2 2 d ] %.[ [ kXq.5.5.5.yXp.y.M.B.g.h.S.=X~.pX5.5.5.5.5.5.5.5.5.5.5.5.5.5.5.5.5.5.5.5.5.",
"5.5.5.5.5.5.5.5.5.5.5.6.jX!.' K Z k k C K X.`.5.5.5.5.5.NXs.i.5X5Xg.d.j.D.Z.yX6.5.5.5.5.5.5.5.5.5.5.5.5.5.5.5.5.5.5.5.5.",
"5.5.5.5.5.5.5.5.5.5.5.5.9.5.q.kX*X@X@X%XiX6.5.5.5.5.5.5.5.d.y.B.6Xd.j.5XM.g.eX8.5.5.5.5.5.5.5.5.5.5.5.5.5.5.5.5.5.5.5.5.",
"5.5.5.5.5.5.5.5.5.5.5.5.5.8.w.6.6.5.5.6.5.5.5.5.5.5.5.5.5.J.u.n.z.4.N.7Xv.j.NX9.5.5.5.5.5.5.5.5.5.5.5.5.5.5.5.5.5.5.5.5.",
"5.5.5.5.5.5.5.5.5.5.5.5.5.5.5.5.5.5.5.5.5.5.5.5.5.5.5.5.5.tXi.$ d.# z.5Xc.g.yX6.6.5.5.5.5.5.5.5.5.5.5.5.5.5.5.5.5.5.5.5.",
"5.5.5.5.5.5.5.5.5.5.5.5.5.8.5.5.6.8.8.5.5.5.5.5.5.5.5.5.5.8.4X# x.u.y.N.7XM.k.q.5.5.5.5.5.5.5.5.5.5.5.5.5.5.5.5.5.5.5.5.",
"5.5.5.5.5.5.5.5.5.5.5.5.5.5.8.5.5.5.5.5.5.5.5.5.5.5.5.5.5.5.5.5.yXu.u.N.7X7Xz.L.q.5.5.5.5.5.5.5.5.5.5.5.5.5.5.5.5.5.5.5.",
"5.5.5.5.5.5.5.5.5.5.5.5.5.5.5.5.5.5.5.5.5.5.5.5.5.5.5.5.5.5.5.5.9.k.u.u.d.b.j.P.8.5.5.5.5.5.5.5.5.5.5.5.5.5.5.5.5.5.5.5."
};
