/* XPM */
static char *a02a6c4485aa445689333e6cfdc55ba4DSjvobuBZ4HkVbBk[] = {
/* columns rows colors chars-per-pixel */
"60 60 227 2 ",
"   c #060406",
".  c #181617",
"X  c #140914",
"o  c #2F0315",
"O  c #250614",
"+  c #310416",
"@  c #3B051B",
"#  c #34091A",
"$  c #350A1A",
"%  c #231818",
"&  c #38111E",
"*  c #32221E",
"=  c #26201F",
"-  c #0E1129",
";  c #15152C",
":  c #181938",
">  c #1C0827",
",  c #3B0726",
"<  c #3A0937",
"1  c #291B3B",
"2  c #31172E",
"3  c #1F2529",
"4  c #29292A",
"5  c #392A27",
"6  c #2A2534",
"7  c #3A3435",
"8  c #39312D",
"9  c #42071E",
"0  c #4B0722",
"q  c #4B0A25",
"w  c #460925",
"e  c #520826",
"r  c #540C2B",
"t  c #451A26",
"y  c #57122D",
"u  c #4A1133",
"i  c #551233",
"p  c #472A2B",
"a  c #49332D",
"s  c #482538",
"d  c #473A38",
"f  c #573B35",
"g  c #53282D",
"h  c #652A38",
"j  c #6A383B",
"k  c #71383F",
"l  c #611C34",
"z  c #3B413F",
"x  c #5A433C",
"c  c #4F413B",
"v  c #65463D",
"b  c #3A0A45",
"n  c #3B1446",
"m  c #2E2645",
"M  c #35274A",
"N  c #3B394B",
"B  c #382F52",
"V  c #481649",
"C  c #4F1D59",
"Z  c #491953",
"A  c #511E5B",
"S  c #453947",
"D  c #4A2755",
"F  c #552659",
"G  c #502C4D",
"H  c #6C3B4C",
"J  c #4D3B63",
"K  c #394747",
"L  c #4A4647",
"P  c #574946",
"I  c #58524F",
"U  c #5D5C5C",
"Y  c #595454",
"T  c #4C4B5C",
"R  c #694B45",
"E  c #754C44",
"W  c #6A554C",
"Q  c #765448",
"!  c #675855",
"~  c #755955",
"^  c #6B4359",
"/  c #7C6357",
"(  c #6D615B",
")  c #56466A",
"_  c #5A5678",
"`  c #57476F",
"'  c #775C7B",
"]  c #654F70",
"[  c #6C6A6B",
"{  c #696465",
"}  c #726A69",
"|  c #757373",
" . c #7C767A",
".. c #706F75",
"X. c #576D6E",
"o. c #83554C",
"O. c #89514E",
"+. c #8C5C52",
"@. c #865853",
"#. c #945D56",
"$. c #884E4C",
"%. c #896759",
"&. c #936356",
"*. c #95655A",
"=. c #9E6A5C",
"-. c #97685B",
";. c #93705F",
":. c #A16C5E",
">. c #996D61",
",. c #9D7465",
"<. c #8B746D",
"1. c #A56E61",
"2. c #A57263",
"3. c #AB7364",
"4. c #A67B6C",
"5. c #AD7C6C",
"6. c #A57768",
"7. c #B07667",
"8. c #B27768",
"9. c #B37A6B",
"0. c #B97E6E",
"q. c #BA806F",
"w. c #B88876",
"e. c #BE927D",
"r. c #AE8475",
"t. c #C58C79",
"y. c #C2937E",
"u. c #CA937E",
"i. c #725E96",
"p. c #626383",
"a. c #6E6F8C",
"s. c #7E7BA1",
"d. c #895984",
"f. c #8D5E88",
"g. c #8E618A",
"h. c #91658D",
"j. c #94698F",
"k. c #837E81",
"l. c #956B91",
"z. c #9D7598",
"x. c #82779C",
"c. c #A07A9D",
"v. c #668385",
"b. c #68878A",
"n. c #6E9397",
"m. c #73979B",
"M. c #77A1A6",
"N. c #8D8A8C",
"B. c #898387",
"V. c #988A82",
"C. c #9D9A9C",
"Z. c #959293",
"A. c #8C9091",
"S. c #B79689",
"D. c #A69897",
"F. c #BB9D93",
"G. c #AA9188",
"H. c #BAA398",
"J. c #AEA39C",
"K. c #8787A8",
"L. c #9597B2",
"P. c #A39DA6",
"I. c #A584A1",
"U. c #82A5A8",
"Y. c #96A3AA",
"T. c #ABA4AA",
"R. c #AAA7A9",
"E. c #B6ADB6",
"W. c #A8B8B9",
"Q. c #B9B6B9",
"!. c #B1A9B0",
"~. c #CD9680",
"^. c #CD9A84",
"/. c #C59883",
"(. c #D29C86",
"). c #D39F88",
"_. c #C09E96",
"`. c #D5A38B",
"'. c #DBA68D",
"]. c #DDA88F",
"[. c #C7A696",
"{. c #DFA990",
"}. c #D2AB98",
"|. c #CBA28F",
" X c #E2AC92",
".X c #EEB69A",
"XX c #E9B296",
"oX c #F2B99C",
"OX c #F0B79B",
"+X c #CAB3A8",
"@X c #D2B2A4",
"#X c #D5BAAC",
"$X c #C9BCB5",
"%X c #D8BCB7",
"&X c #DEA7B9",
"*X c #F9BEA0",
"=X c #F7BDA0",
"-X c #DBC4B8",
";X c #CBC1BB",
":X c #FEC2A3",
">X c #E0C5B7",
",X c #E1C6BB",
"<X c #A5A9C7",
"1X c #F393D5",
"2X c #C3BAC2",
"3X c #EAA9CB",
"4X c #C5C3C5",
"5X c #CBC4CA",
"6X c #CDCCCD",
"7X c #C7C6CB",
"8X c #D5CBC4",
"9X c #D4CDD3",
"0X c #D7D4D7",
"qX c #CFCCD0",
"wX c #E6CDC2",
"eX c #E4D4CA",
"rX c #E8D5CA",
"tX c #EFDCD1",
"yX c #F3DED2",
"uX c #F1DACD",
"iX c #FBE5DB",
"pX c #FEE9DE",
"aX c #F5E2D8",
"sX c #FFC5E1",
"dX c #E1DDE0",
"fX c #FEFAF8",
"gX c #EFE7E4",
/* pixels */
"d.d.d.d.d.d.d.d.d.d.d.d.d.d.d.d.d.d.d.d.d.d.d.d.h.T.U Q.9X| x f L | T.d.d.f.d.d.l.f.d.d.d.f.g.d.d.d.d.d.d.d.d.d.d.d.d.d.",
"d.d.d.d.d.d.d.d.d.d.d.d.d.d.d.d.d.d.d.d.d.d.g.0XY a 6.Q 8 %.].].'.e.%.x L C.d.d.d.g.d.g.j.g.f.d.d.d.d.d.d.d.d.d.d.d.d.d.",
"d.d.d.d.d.d.d.d.d.d.d.d.d.d.d.d.d.d.d.g.d.h.P.5 &.8.`.].'.^.].].].].].].`.%.d T.d.d.d.d.d.d.d.d.d.d.d.d.d.d.d.d.d.d.d.d.",
"d.d.d.d.d.d.d.d.d.d.d.d.d.d.d.d.d.d.f.d.d.B.p 7.8.q.].].].].].].].].].].].].`.f  .f.d.d.d.d.d.d.d.d.d.d.d.d.d.d.d.d.d.d.",
"d.d.d.d.d.d.d.d.d.d.d.d.d.d.d.d.d.f.d.d.N.f 3.8.8.~.].].].].].].].].].].].].].`.%.} f.d.d.d.d.d.d.d.d.d.d.d.d.d.d.d.d.d.",
"d.d.d.d.d.d.d.d.d.d.d.d.d.d.d.d.d.f.l.N.f 3.8.8.9.'.].].].].].].].].].].].].].].].;.[ d.d.d.f.d.d.d.d.d.d.d.d.d.d.d.d.d.",
"d.d.d.d.d.d.d.d.d.d.d.d.d.d.d.d.d.g.D.a 3.8.8.8.t.].].].].].].].].].].].].].].].].].%.[ h.d.d.f.d.d.d.d.d.d.d.d.d.d.d.d.",
"d.d.d.d.d.d.d.d.d.d.d.d.d.d.d.f.f.4Xx 2.8.8.8.8.^.].].].].].].].].].].].].].].].].].'./ R.h.f.d.d.d.d.d.d.d.d.d.d.d.d.d.",
"d.d.d.d.d.d.d.d.d.d.d.d.d.d.d.f.l.Y &.8.8.8.8.8.'.].].].].].].].].].].].].].].].].].].^.I f.d.f.d.d.d.d.d.d.d.d.d.d.d.d.",
"d.d.d.d.d.d.d.d.d.d.d.d.d.f.d.g.N.E 8.8.8.8.8.8.].].].].].].].{. X X X X X{.].].].].].].;.Z.g.d.d.d.d.d.d.d.d.d.d.d.d.d.",
"d.d.d.d.d.d.d.d.d.d.d.d.d.f.d.4Xx 3.8.8.8.7.7.8.].]. X XXX.XoX=X*X*X:X*X*X*XoX.XXX X{.].^.! d.f.d.d.d.d.d.d.d.d.d.d.d.d.",
"d.d.d.d.d.d.d.d.d.d.d.d.f.d.g.! *.8.8.8.8.:.7.8.'. XXX.X.X.XOXoX.X*X:X*X*X:X:X:X:X:XOXoXXX! f.f.d.d.d.d.d.d.d.d.d.d.d.d.",
"d.d.d.d.d.d.d.d.d.d.d.d.f.d.Q.x 8.8.8.8.8.=.8.8.).].].{.].].].`.@X`. X Xy.*X:XOX:X:X'.oX:X! f.f.f.d.d.d.d.d.d.d.d.d.d.d.",
"d.d.d.d.d.d.d.d.d.d.d.d.d.h.{ &.8.8.8.8.7.:.8.8.~.].].).).].].}.aX@X'.].w.]. X X`.:X*X].*X~ f.f.d.d.d.d.d.d.d.d.d.d.d.d.",
"d.d.d.d.d.d.d.d.d.d.d.f.f.9Xx 7.8.8.8.8.=.8.7.=.u.].].w.^.].`.wXpXtX`.].|.|.].].[.{.OX.Xw.! d.h.f.f.d.d.d.d.d.d.d.d.d.d.",
"d.d.d.d.d.d.d.d.d.d.d.f.f.C.E 8.8.8.8.8.=.8.&.8.`.].^.F.`.`.}.iXpXpX-X`.^.%X'.].}.}.y.`./.d f.f.f.d.d.d.d.d.d.d.d.d.d.d.",
"d.d.d.d.d.d.d.d.d.d.d.f.d.{ *.8.8.8.8.:.3.8.*.q.].'.[.S.~.).wXpXpXpXyX}.].,X|.]./.-X`.].].4.! d.d.d.d.d.d.d.d.d.d.d.d.d.",
"d.d.d.d.d.d.d.d.d.d.d.f.g.k.+.8.8.8.3.&.8.2.6.u.].e.-Xw.t.}.iXpXpXpXpX-X'.%X-X(.y.rX#X`.].].,.[ d.d.f.d.d.d.d.d.d.d.d.d.",
"d.d.d.d.d.d.d.d.d.d.d.d.f.R.E 7.8.8.1.3.:.4.=.).).F.>X6.q.-XpXpXpXpXpXiX/.@XtXS.u.-XiX}.].].].%. .f.d.d.d.d.d.d.d.d.d.d.",
"d.d.d.d.d.d.d.d.d.d.d.d.f.Q.v 8.8.3.:.8.3.F.2.y.6.-X>X>.q.rXpXpXpXpXpXpX|.S.rX@X5.( 4 V.`.].].^.! d.f.d.d.d.d.d.d.d.d.d.",
"d.d.d.d.d.d.d.d.d.d.d.d.f.4Xv 8.8.1.3.8.@.<.5.^.S.+X+X,.S.iXpXpXpXpXpXpXF.F.D.d * L . H.e.'.].r. .d.d.d.d.d.d.d.d.d.d.d.",
"d.d.d.d.d.d.d.d.d.d.d.d.f.6Xv 7.7.:.8.8.R 4 % * ( G.[.%.S.pXpXpXpXpXpXpXG.. 3 X.>.| 7 H././.].;.D.g.d.f.d.d.d.d.d.d.d.d.",
"d.d.d.d.d.d.d.d.d.d.d.d.f.4Xv 8.1.3.8.3.G.U :.! T K z 8 D.pXpXpXpXpXpXpX+XR.a.v.<.| I H.}.[.].W z.d.d.f.d.d.d.d.d.d.d.d.",
"d.d.d.d.d.d.d.d.d.d.f.f.d.!.R 7.:.8.8.2.-XI 4.{ v.v.v.X.$XpXpXpXpXpXpXpXeXdXY.v.<.v.} [.`.%X^.! f.d.f.d.d.d.d.d.d.d.d.d.",
"d.d.d.d.d.d.d.d.d.d.g.d.d.B.+.3.1.8.8.4.>X( S...b.v.v.v.8XpXpXpXpXpXpXpXpXfXW.b.[ n.V.}.`.-Xr.| f.d.d.d.d.d.d.d.d.d.d.d.",
"d.d.d.d.d.d.d.d.d.d.d.d.d.Y :.7.:.3.8.,.>XV.D.$XY.v.v.b.8XpXpXpXpXpXpXpXpXfXU.m.b.M.J.@X'.$X<.T.g.d.f.g.d.d.d.d.d.d.d.d.",
"d.d.d.d.d.d.d.d.d.d.d.h.6Xx 8.8.3.:.3.3.#X#XC.A.n.v.b.n.8XpXpXpXpXpXpXpXpXfXW.M.M.U.-X#X'.[.! f.f.d.f.d.d.d.d.d.d.d.d.d.",
"d.d.d.d.d.d.d.d.d.h.d.f.A.o.8.8.3.3.:.8.F.-XE.W.M.n.m.M.eXpXpXpXpXpXpXpXpXpXaX8X8X3XsX@X`.w.U d.d.d.d.d.d.d.d.d.d.d.d.d.",
"d.d.d.d.d.d.d.d.d.g.d.h.Y :.8.3.1.8.1.1.r.>X%X4XU.M.U.W.aXpXpXpXpXpXpXpXpXpXpXpXiXsX%Xr.(.r.| d.d.d.d.d.d.d.d.d.d.d.d.d.",
"d.d.d.d.d.d.d.d.d.h.f.C.x 8.8.2.2.8.8.:.=.&X1X1X+X8XeXiXpXpXpXpXpXpXpXpXpXpXpXpXpX-X5.8.t.^.! d.d.d.d.d.d.d.d.d.d.d.d.d.",
"d.d.d.d.d.d.d.d.d.l.f.U E 8.8.:.3.8.8.8.=._.3X3X>XyXpXpXpXpXpXpXpXpXpXpXpXpXpXpXwX5.8.8.q.`.P j.h.d.g.d.d.d.d.d.d.d.d.d.",
"d.d.d.d.d.d.d.d.d.d.l.5 =.8.8.=.8.8.8.8.8.%.F.+X>XuXpXpXpXpXrX$X;X$X-XeXtXpXaX@X6.8.8.8.8.(.W E.d.d.d.f.d.d.d.d.d.d.d.d.",
"d.d.d.d.d.d.d.d.f.g.T.E 8.8.3.=.8.8.8.8.8.3.3.=.5.|.G.F.%XyXpXpXpXpXpXpXeXF.5.'.w.8.8.:.8.t.,.k.d.d.d.c.d.d.d.d.d.d.d.d.",
"d.d.d.d.d.d.d.d.f.h.I 3.8.8.:.:.8.8.8.8.8.8.8.3.3.'.k 0 $ H.eXeXG.~ H h :.7.:.(.y.8.8.1.3.0.e.Y l.f.g.h.d.d.d.d.d.d.d.d.",
"d.d.d.d.d.d.d.d.g.f.p 8.7.8.-.1.8.8.8.E 8.8.8.8.=.(.O.@ 2 L.Y.7XN.# w e k 8.=.t.`.1.8.3.1.8.^.P f.d.f.g.d.d.d.d.d.d.d.d.",
"d.d.d.d.d.d.d.d.f.C.E 8.8.8.Q 7.8.8.3.v 8.8.8.8.=.u.*.@ < i.<XY.P.D w j 7.8.:.0.].2.8.8.:.8.t.~ T.f.f.g.d.d.d.d.d.d.d.d.",
"d.d.d.d.d.d.d.d.f.I 3.8.8.8.v 8.8.8.&.Q 8.8.8.8.=.3.r.+ , b K.7XQ.G q y h 1.8.:.'.3.8.8.3.3.q.4.B.f.f.f.d.d.d.d.d.d.d.d.",
"d.d.d.d.d.d.d.d.d.d 8.8.8.3.f 8.8.8.E v 8.8.8.3.t o.y.@ q n L.6X7XH e 0 y l O.:.).3.8.8.3.1.9.w.{ f.d.d.d.d.d.d.d.d.d.d.",
"d.d.d.d.d.d.d.d.d.p 8.8.8.=.a 8.8.8.f 5 8.8.8.g + k u.$ w < _ L.s.x.q t 0 e l H (.2.8.8.8.2.9.~.! h.f.d.d.d.d.d.d.d.d.d.",
"d.d.d.d.d.d.d.d.d.5 8.8.8.=.5 3.8.8.d = 8.8.E o 9 h t.$ , < K.2X' W.H #.j 9 q h ^.O.8.8.8.2.0.~.! f.f.f.d.d.d.d.d.d.d.d.",
"d.d.d.d.d.d.d.d.g.d 8.8.8.=.* :.8.3.P 4 1.+.# @ e j 0.& q < a.qX' !.H #.7.O.t G w.r >.3.8.2.9.u.~ f.f.f.d.d.d.d.d.d.d.d.",
"d.d.d.d.d.d.d.d.g.{ *.8.8.=.% &.8.3.P Y f t s e h &.3.g w < n L.] K.^ #.8.8.*.g +.s a.P :.2.r.u.~ g.f.d.d.d.d.d.d.d.d.d.",
"d.d.d.d.d.d.d.d.f.R.v 8.8.=.% E 8.3.d L X O q h 1.=.&.E w < G ' ] ) ^ #.8.8.8.-.o.N S s -.%.,.^.~ f.f.d.d.d.d.d.d.d.d.d.",
"d.d.d.d.d.d.d.d.d.h.a 8.8.:.8 x 8.3.d S 1 S w O.7.:.+.H w D D ` ` D y k 8.8.8.&.8.  o.1.9.R ;.(.! f.d.d.d.d.d.d.d.d.d.d.",
"d.d.d.d.d.d.d.d.d.d.| +.8.3.P I :.3.P R.N ..! 3.7.:.j # w D ) i.i.) i y *.8.8.=.q.  Q q.q.c ;.^.! d.d.d.d.d.d.d.d.d.d.d.",
"d.d.d.d.d.d.d.d.d.d.9Xa :.3.P N.E 8.P d. .@.2.8.8.+.# + w b F C C F u e h 7.8.8.q.. Q u.5.P / y.} d.d.d.d.d.d.d.d.d.d.d.",
"d.d.d.d.d.d.d.d.d.d.h.[ R 8.P 4XP 3.P I.2Xf 8.8.3.t o @ w Z C D C A V e e $.8.8.;.Y Q )./ N.~ ,.Z.g.d.d.d.d.d.d.d.d.d.d.",
"d.d.d.d.d.d.d.d.d.d.g.9XI :.x qXN.E R 5Xd.L 3.7.f o + q < C D _ ) Z V r e y :.0.R !.Q y.} 4X~ W 2Xh.d.d.d.d.d.d.d.d.d.d.",
"d.d.d.d.d.d.d.d.d.d.d.h.B.E v 4X5Xf R qXd. .+.#.+ o @ r b C J p._ V C u e e k t.d 5XQ ;.!.6XW ! h.f.d.d.d.d.d.d.d.d.d.d.",
"d.d.d.d.d.d.d.d.d.d.d.l.dXL v P.f.B.a 5Xd.6X5 $ o o 0 < V C ) p.p.Z C V e e e +.I d.5 } d.6X8 Q.l.z.d.d.d.d.d.d.d.d.d.d.",
"d.d.d.d.d.d.d.d.d.d.d.f.l.P.5 Z.d.d.Y 2Xd.L O o o @ q b Z D ` p.a.D C C e e e e % Q.N.j.d.j.C.z.h.z.d.d.d.d.d.d.d.d.d.d.",
"d.d.d.d.d.d.d.d.d.d.d.f.d.l. . .d.d.d.6Xd O o o o 0 < b C F _ p.a.J Z A u e e e q = 9Xg.d.h.l.h.j.l.d.d.d.d.d.d.d.d.d.d.",
"d.d.d.d.d.d.d.d.d.d.d.d.f.f.h.R.d.d.E.. O o o o @ q b b A D _ p.a._ n A V e e e e 0 8 Q.g.d.d.d.d.d.d.d.d.d.d.d.d.d.d.d.",
"d.d.d.d.d.d.d.d.d.d.d.d.d.d.d.l.g.g.!.X o o o o 0 , b n C D N N T T n 1 Z q e e e e 0 S f.f.d.g.d.d.d.d.d.d.d.d.d.d.d.d.",
"d.d.d.d.d.d.d.d.d.d.d.d.d.d.d.d.d.h.gXL O o o @ q > : m M 6 C.!.Q.L > : M u e e e e @ Y f.d.d.h.f.f.d.d.d.d.d.d.d.d.d.d.",
"d.d.d.d.d.d.d.d.d.d.d.d.d.d.d.d.d.d.f.0X% o + q O - ; m m 7 g.f.c.| - : 6 m e e e e O T.d.d.d.g.d.f.d.d.d.d.d.d.d.d.d.d.",
"d.d.d.d.d.d.d.d.d.d.d.d.d.d.d.d.d.d.d.d.E.X @ q   - : m m U f.d.d.E.- : B B w e e + N.f.d.j.d.f.f.z.d.g.d.d.d.d.d.d.d.d.",
"d.d.d.d.d.d.d.d.d.d.d.d.d.d.d.d.d.d.f.d.d.<.+ o X - : B 1 A.f.d.d.l.6 ; B B 2 e 0 7 z.d.j.l.d.d.d.d.d.d.d.d.d.d.d.d.d.d.",
"d.d.d.d.d.d.d.d.d.d.d.d.d.d.d.d.d.d.d.d.d.h.} 7 A.3 - ; 4 2Xg.d.d.d.U X : ; X 0 * 5Xl.f.f.g.d.d.d.d.d.d.d.d.d.d.d.d.d.d.",
"d.d.d.d.d.d.d.d.d.d.d.d.d.d.d.d.d.d.d.d.d.d.f.f.h.2X[ | 6Xd.d.d.f.d.d.C.L [ !.7 2Xz.g.z.f.h.d.d.f.h.g.z.d.d.d.d.d.d.d.d."
};
