/* XPM */
static char *_93e0bb489a94915898aaaabb31766c2tDJHGP20LXwGhcX1[] = {
/* columns rows colors chars-per-pixel */
"60 60 96 2 ",
"   c #895984",
".  c #4E2868",
"X  c #4B2564",
"o  c #6A3A8A",
"O  c #6B3C8C",
"+  c #673887",
"@  c #562C70",
"#  c #8F6EBA",
"$  c #9B82C9",
"%  c #7E53A4",
"&  c #653683",
"*  c #714393",
"=  c #724494",
"-  c #774A99",
";  c #8259A9",
":  c #9B83C7",
">  c #A491D3",
",  c #784B9D",
"<  c #744798",
"1  c #6C3D8C",
"2  c #9376BD",
"3  c #A38FD2",
"4  c #A692D6",
"5  c #9E87CB",
"6  c #A896D9",
"7  c #9F8ACE",
"8  c #8059A4",
"9  c #5A2F77",
"0  c #60327C",
"q  c #835EA9",
"w  c #8F70B7",
"e  c #9277BB",
"r  c #A18BCE",
"t  c #A795D7",
"y  c #9E88CB",
"u  c #A898D9",
"i  c #8965B1",
"p  c #7E55A4",
"a  c #6F418E",
"s  c #957BBF",
"d  c #8B6BB0",
"f  c #8969AE",
"g  c #9073B7",
"h  c #532A6D",
"j  c #552C6F",
"k  c #542A6E",
"l  c #44225D",
"z  c #31184D",
"x  c #4D2767",
"c  c #8C6DB2",
"v  c #9C83C7",
"b  c #9C86C8",
"n  c #8C6DB5",
"m  c #8F72B9",
"M  c #997DC4",
"N  c #9072B8",
"B  c #8C6BB1",
"V  c #977CC1",
"C  c #977BC2",
"Z  c #9E87CC",
"A  c #7A519C",
"S  c #987FC2",
"D  c #7C549F",
"F  c #7F58A3",
"G  c #7E57A2",
"H  c #8461A8",
"J  c #845FAA",
"K  c #8664AD",
"L  c #3E1E55",
"P  c #4D2867",
"I  c #835EA6",
"U  c #8865AF",
"Y  c #633783",
"T  c #412059",
"R  c #3B1E53",
"E  c #311848",
"W  c #61347F",
"Q  c #784F99",
"!  c #734894",
"~  c #50286A",
"^  c #311847",
"/  c #361B4C",
"(  c #472460",
")  c #724693",
"_  c #653784",
"`  c #3F2057",
"'  c #482461",
"]  c #5E317A",
"[  c #5F327C",
"{  c #401F57",
"}  c #4F2768",
"|  c #572B72",
" . c #5C2E77",
".. c #391C4F",
"X. c #3C1D52",
"o. c #34194A",
/* pixels */
"                                                                                                                        ",
"                                                                                                                        ",
"                          . . . . . . . . . . . . . . . . . . . . . . . . . . . . . . . . . . X                         ",
"                          o O O O O O O O O O O O O O O O O O O O O O O O O O O O O O O O O O +                         ",
"                @ @ @ @ + # $ $ $ $ $ $ $ $ $ $ $ $ $ $ $ $ $ $ $ $ $ $ $ $ $ $ $ $ $ $ $ $ $ % @ @ @ @ @               ",
"              & * = = - ; : > > > > > > > > > > > > > > > > > > > > > > > > > > > > > > > > > # , < = = 1               ",
"            @ 1 2 : : 3 4 5 : : : : : : : : : : : : : : : : : : : : : : : : : : : : : : : : : 3 6 7 : : 8 9             ",
"          0 - q w e e r t y : : : : : : : : : : : : : : : : : : : : : : : : : : : : : : : : : 3 u : e e i p a @         ",
"        @ 0 i s d f d 5 t y : : : : : : : : : : : : : : : : : : : : : : : : : : : : : : : : : 3 u s f f g : - @         ",
"        @ 0 i s d f d 5 t y : : : : : : : : : : : : : : : : : : : : : : : : : : : : : : : : : 3 u s f f g : - @         ",
"        h 0 i s d f d 5 t y : : : : : : : : : : : : : : : : : : : : : : : : : : : : : : : : : 3 u s f f g : - j         ",
"        . 0 i s d f d 5 t y : : : : : : : : : : : : : : : : : : : : : : : : : : : : : : : : : 3 u s f f g : - k l       ",
"      z x 0 i s d f d 5 t y : : : : : : : : : : : : : : : : : : : : : : : : : : : : : : : : : 3 u s f f g : - k l       ",
"      z x 0 i s d f d 5 t y : : : : : : : : : : : : : : : : : : : : : : : : : : : : : : : : : 3 u s f f g : - k l       ",
"      z x 0 i s d f d 5 t y : : : : : : : : : : : : : : : : : : : : : : : : : : : : : : : : : 3 u s f f g : - k l       ",
"      z x 0 i s d f d 5 t y : : : : : : : : : : : : : : : : : : : : : : : : : : : : : : : : : 3 u s f f g : - k l       ",
"      z x 0 i s d f d 5 t y : : : : : : : : : : : : : : : : : : : : : : : : : : : : : : : : : 3 u s f f g : - k l       ",
"      z x 0 i s d f d 5 t y : : : : : : : : : : : : : : : : : : : : : : : : : : : : : : : : : 3 u s f f g : - k l       ",
"      z x 0 i s d f d 5 t y : : : : : : : : : : : : : : : : : : : : : : : : : : : : : : : : : 3 u s f f g : - k l       ",
"      z x 0 i s d f d 5 t y : : : : : : : : : : : : : : : : : : : : : : : : : : : : : : : : : 3 u s f f g : - k l       ",
"      z x 0 i s d f d 5 t y : : : : : : : : : : : : : : : : : : : : : : : : : : : : : : : : : 3 u s f f g : - k l       ",
"      z x 0 i s d f d 5 t y : : : : : : : : : : : : : : : : : : : : : : : : : : : : : : : : : 3 u s f f g : - k l       ",
"      z x 0 i s d f d 5 t y : : : : : : : : : : : : : : : : : : : : : : : : : : : : : : : : : 3 u s f f g : - k l       ",
"      z x 0 i s d f d 5 t y : : : : : : : : : : : : : : : : : : : : : : : : : : : : : : : : : 3 u s f f g : - k l       ",
"      z x 0 i s d f d 5 t y : : : : : : : : : : : : : : : : : : : : : : : : : : : : : : : : : 3 u s f f g : - k l       ",
"      z x 0 i s d f d 5 t y : : : : : : : : : : : : : : : : : : : : : : : : : : : : : : : : : 3 u s f f g : - k l       ",
"      z x 0 i s d f d 5 t y : : : : : : : : : : : : : : : : : : : : : : : : : : : : : : : : : 3 u s f f g : - k l       ",
"      z x 0 i s d f d 5 t y : : : : : : : : : : : : : : : : : : : : : : : : : : : : : : : : : 3 u s f f g : - k l       ",
"      z x 0 i s d f d 5 t y : : : : : : : : : : : : : : : : : : : : : : : : : : : : : : : : : 3 u s f f g : - k l       ",
"      z x 0 i s d f d 5 t y : : : : : : : : : : : : : : : : : : : : : : : : : : : : : : : : : 3 u s f f g : - k l       ",
"      z x 0 i s d f d 5 t y : : : : : : : : : : : : : : : : : : : : : : : : : : : : : : : : : 3 u s f f g : - k l       ",
"      z x 0 i s d f d 5 t y : : : : : : : : : : : : : : : : : : : : : : : : : : : : : : : : : 3 u s f f g : - k l       ",
"      z x 0 i s d f d 5 t y : : : : : : : : : : : : : : : : : : : : : : : : : : : : : : : : : 3 u s f f g : - k l       ",
"      z x 0 i s d f d 5 t y : : : : : : : : : : : : : : : : : : : : : : : : : : : : : : : : : 3 u s f f g : - k l       ",
"      z x 0 i s d f d 5 t y : : : : : : : : : : : : : : : : : : : : : : : : : : : : : : : : : 3 u s f f g : - k l       ",
"      z x 0 i s d f d 5 t y : : : : : : : : : : : : : : : : : : : : : : : : : : : : : : : : : 3 u s f f g : - k l       ",
"      z x 0 i s d f d 5 t y : : : : : : : : : : : : : : : : : : : : : : : : : : : : : : : : : 3 u s f f g : - k l       ",
"      z x 0 i s d f d 5 t y : : : : : : : : : : : : : : : : : : : : : : : : : : : : : : : : : 3 u s f f g : - k l       ",
"      z x 0 i s d f d 5 t y : : : : : : : : : : : : : : : : : : : : : : : : : : : : : : : : : 3 u s f f g : - k l       ",
"      z x 0 i s d f c v > y 5 5 5 5 5 5 5 5 5 5 5 5 5 5 b 5 5 5 5 5 5 5 b 5 5 5 b b 5 5 5 5 5 r 4 s f f g : - k l       ",
"      z x 0 i s d w s n m 7 4 4 4 4 4 4 4 4 4 4 4 4 4 4 4 4 4 4 4 4 4 4 4 4 4 4 4 4 4 4 4 4 4 M d N e B g : - k l       ",
"      z x 0 i V w N e q 8 C Z Z Z Z Z Z Z Z Z Z Z Z Z Z Z Z Z Z Z Z Z Z Z Z Z Z Z Z Z Z Z Z Z n A d e n e : - k l       ",
"      z x 0 i : S n 8 D D 8 q q q q q q q q q q q q q q q q q q q q q q q q q q q q q q q q q F A G H 2 : : - k l       ",
"      z x 0 i V w J A A A A A A A A A A A A A A A A A A A A A A A A A A A A A A A A A A A A A A A A G d 2 : - k l       ",
"      z x 0 i N G A A A A A A A A A A A A A A A A A A A A A A A A A A A A A A A A A A A A A A A A A A A K : - k l       ",
"      z L P - K I I I I I I I I I I I I I I I I I I I I I I I I I I I I I I I I I I I I I I I I I I I I H U Y T R       ",
"      z E R W Q I H H H H H H H H H H H H H H H H H H H H H H H H H H H H H H H H H H H H H H H H H H H G ! ~ ^ E       ",
"      z E / ( 9 a ) ) ) ) ) ) ) ) ) ) ) ) ) ) ) ) ) ) ) ) ) ) ) ) ) ) ) ) ) ) ) ) ) ) ) ) ) ) ) ) ) ) ) _ h ` ^ E       ",
"      z E E R ' 9 ] 0 0 0 0 0 0 0 0 0 0 0 0 0 0 0 0 0 0 0 0 0 0 0 0 0 0 0 0 0 0 0 0 0 0 0 0 0 0 0 0 [ ] h { / ^ E       ",
"      z E E R { T ' x x x x x x x x x x x x x x x x x x x x x x x x x x x x x x x x x x x x x x x x X l T L / ^ E       ",
"      z E E R { T l ' ' ' x x x x x x x x ~ h h h h h h h h h h h h h h h h h } x x x x x x x X ' ' ' l T L / ^ E       ",
"      z E E R T ' ' ' ' X ~ h h h h h h h | ] ] ] ] ] ] ] ] ] ] ] ] ] ] ] ]  .k h h h h h h h x ' ' ' ' l L / ^ E       ",
"      z E E R L T T T l ' x x x x x x x x } h h h h h h h h h h h h h h h h ~ x x x x x x x x X ' l T T T L / ^ E       ",
"      z E E ..X.X.X.X.T l l l l l l l l l l l l l l l l l l l l l l l l l l l l l l l l l l l l l L X.X.X.X./ ^ E       ",
"      z E E o.o.o.o.o.o./ / / / / / / / / / / / / / / / / / / / / / / / / / / / / / / / / / / / / o.o.o.o.o.o.E z       ",
"          z E ^ ^ ^ ^ ^ ^ ^ ^ ^ ^ ^ ^ ^ ^ ^ ^ ^ ^ ^ ^ ^ ^ ^ ^ ^ ^ ^ ^ ^ ^ ^ ^ ^ ^ ^ ^ ^ ^ ^ ^ ^ ^ ^ ^ ^ ^ ^ E           ",
"          z z z z z z z z z z z z z z z z z z z z z z z z z z z z z z z z z z z z z z z z z z z z z z z z z z           ",
"                                                                                                                        ",
"                                                                                                                        ",
"                                                                                                                        "
};
